<?xml version="1.0" standalone="no"?>
<!DOCTYPE svg PUBLIC "-//W3C//DTD SVG 20010904//EN"
 "http://www.w3.org/TR/2001/REC-SVG-20010904/DTD/svg10.dtd">
<svg version="1.0" xmlns="http://www.w3.org/2000/svg"
 width="194.000000pt" height="233.000000pt" viewBox="0 0 194.000000 233.000000"
 preserveAspectRatio="xMidYMid meet">

<g transform="translate(0.000000,233.000000) scale(0.100000,-0.100000)"
fill="#000000" stroke="none">
<path d="M1225 1620 c4 -6 -25 -10 -79 -10 -70 0 -86 -3 -86 -15 0 -12 16 -15
85 -15 63 0 84 -3 83 -12 -4 -16 23 -12 72 9 l35 15 -40 19 c-44 20 -80 25
-70 9z"/>
<path d="M1140 1511 c0 -5 5 -11 12 -13 16 -6 -40 -206 -64 -230 -10 -10 -18
-20 -18 -23 0 -10 89 -5 95 5 3 6 -1 10 -9 10 -20 0 -20 5 0 64 15 44 18 47
48 44 21 -2 31 -8 31 -20 0 -38 15 -27 29 23 22 72 20 78 -9 46 -15 -16 -36
-27 -51 -27 -23 0 -25 3 -20 26 4 15 10 40 13 56 5 28 7 29 57 26 41 -2 53 -7
62 -26 l11 -23 7 23 c12 47 11 48 -94 48 -55 0 -100 -4 -100 -9z"/>
<path d="M570 1300 c0 -5 -22 -10 -50 -10 -38 0 -50 -4 -50 -15 0 -11 12 -15
46 -15 30 0 51 -5 58 -15 10 -13 15 -12 41 9 l29 23 -31 17 c-37 19 -43 20
-43 6z"/>
<path d="M535 1181 c-38 -23 -65 -62 -72 -107 -10 -61 38 -85 91 -43 l26 20 0
-20 c0 -24 17 -27 43 -7 18 14 25 42 7 31 -14 -9 -13 5 10 70 22 63 19 80 -10
65 -13 -7 -21 -7 -25 0 -9 15 -37 12 -70 -9z m65 -31 c0 -60 -50 -120 -87
-106 -39 15 22 136 69 136 13 0 18 -8 18 -30z"/>
<path d="M710 1175 c0 -13 17 -15 123 -13 160 4 158 22 -3 26 -103 2 -120 0
-120 -13z"/>
<path d="M1025 1130 c-16 -25 14 -30 191 -30 177 0 184 1 184 20 0 19 -7 20
-184 20 -113 0 -187 -4 -191 -10z"/>
<path d="M738 1112 c-17 -2 -28 -9 -28 -18 0 -12 20 -14 123 -12 75 2 121 7
120 13 -3 10 -164 23 -215 17z"/>
<path d="M1093 923 c-25 -5 -31 -19 -11 -25 9 -3 8 -21 -5 -69 -22 -78 -22
-83 -4 -87 10 -2 21 13 31 46 16 47 69 122 79 112 3 -3 -5 -38 -18 -78 -20
-63 -21 -74 -8 -79 18 -7 28 3 42 47 11 37 66 110 81 110 5 0 2 -21 -6 -47
-25 -82 -29 -113 -11 -113 8 0 25 9 38 21 19 16 20 19 5 15 -12 -4 -17 -2 -14
6 32 87 39 120 28 133 -19 22 -34 18 -69 -17 -30 -31 -31 -31 -29 -9 2 13 -4
28 -14 34 -14 9 -23 6 -48 -18 -30 -29 -30 -29 -28 -6 3 26 -5 30 -39 24z"/>
</g>
</svg>
