<?xml version="1.0" standalone="no"?>
<!DOCTYPE svg PUBLIC "-//W3C//DTD SVG 20010904//EN"
 "http://www.w3.org/TR/2001/REC-SVG-20010904/DTD/svg10.dtd">
<svg version="1.0" xmlns="http://www.w3.org/2000/svg"
 width="398.000000pt" height="115.000000pt" viewBox="0 0 398.000000 115.000000"
 preserveAspectRatio="xMidYMid meet">
<metadata>
Created by potrace 1.16, written by Peter Selinger 2001-2019
</metadata>
<g transform="translate(0.000000,115.000000) scale(0.100000,-0.100000)"
fill="#000000" stroke="none">
<path d="M445 886 c-61 -29 -87 -56 -116 -121 -27 -60 -31 -193 -10 -269 18
-63 81 -130 136 -145 56 -15 139 -14 180 4 35 14 37 13 90 -24 95 -67 150 -78
143 -29 -2 15 -19 32 -48 48 -25 14 -56 33 -69 42 l-23 17 21 29 c76 107 61
330 -27 415 -62 59 -189 75 -277 33z m198 -64 c45 -26 70 -82 75 -171 6 -99
-10 -156 -56 -202 -43 -42 -100 -56 -164 -39 -52 14 -84 50 -103 113 -41 139
6 287 101 317 39 12 110 4 147 -18z"/>
<path d="M1767 753 c-8 -13 -12 -387 -5 -399 8 -12 37 -12 56 0 8 5 12 47 12
146 l0 138 35 31 c44 39 83 40 116 5 23 -24 24 -33 28 -174 3 -138 5 -149 23
-153 45 -12 48 -3 48 148 l0 143 35 31 c55 48 113 39 134 -20 6 -18 11 -92 11
-164 0 -130 0 -133 23 -137 45 -9 47 -4 47 140 -1 167 -9 208 -51 246 -29 25
-37 28 -85 24 -41 -4 -63 -12 -92 -35 l-38 -31 -25 30 c-21 26 -33 32 -79 35
-49 4 -60 2 -97 -26 l-42 -30 -3 27 c-2 19 -10 28 -25 30 -11 2 -23 -1 -26 -5z"/>
<path d="M2743 740 c-66 -40 -87 -105 -54 -173 28 -58 71 -82 137 -74 39 4 55
12 81 41 28 30 33 43 33 83 0 111 -107 178 -197 123z"/>
<path d="M3345 746 c-16 -7 -39 -23 -49 -35 -24 -26 -33 -110 -16 -150 10 -25
9 -34 -4 -53 -20 -29 -21 -76 -1 -99 15 -15 14 -20 -10 -54 -28 -42 -31 -62
-14 -99 19 -41 73 -61 164 -61 125 1 185 43 185 129 0 69 -65 106 -186 106
-66 0 -98 16 -92 46 3 17 11 19 75 15 60 -2 78 1 107 18 52 32 75 116 47 169
-10 19 -8 21 21 24 25 2 34 8 36 26 2 12 2 22 0 23 -2 0 -55 2 -118 5 -83 3
-123 0 -145 -10z m103 -47 c39 -13 58 -60 42 -106 -25 -70 -127 -68 -150 3
-14 41 3 82 40 101 31 16 30 15 68 2z m65 -346 c41 -38 5 -102 -60 -105 -90
-3 -127 8 -138 42 -8 25 17 68 45 78 31 12 134 1 153 -15z"/>
<path d="M1094 695 c-4 -8 -4 -22 0 -30 5 -13 31 -15 178 -13 160 3 173 4 176
22 2 10 -2 22 -10 27 -7 5 -86 9 -176 9 -135 0 -164 -3 -168 -15z"/>
<path d="M1094 525 c-4 -8 -4 -22 0 -30 4 -13 33 -15 175 -15 161 0 170 1 176
20 3 11 3 24 0 30 -4 6 -73 10 -176 10 -142 0 -171 -2 -175 -15z"/>
</g>
</svg>
